<svg id="圖層_1" data-name="圖層 1" xmlns="http://www.w3.org/2000/svg" xmlns:xlink="http://www.w3.org/1999/xlink" viewBox="0 0 64 64"><defs><style>.cls-1{fill:url(#linear-gradient);}</style><linearGradient id="linear-gradient" x1="6.72" y1="15.18" x2="57.76" y2="49.62" gradientUnits="userSpaceOnUse"><stop offset="0" stop-color="#5ee6d0"/><stop offset="0.51" stop-color="#bfc6ff"/><stop offset="1" stop-color="#ffba69"/></linearGradient></defs><circle cx="32" cy="32" r="32"/><path class="cls-1" d="M52.29,44a3.47,3.47,0,0,1-1.39,1.35,3.4,3.4,0,0,1-1.9.41,6.91,6.91,0,0,0,3.23-5.51,3.48,3.48,0,0,1,.57,1.87A3.44,3.44,0,0,1,52.28,44ZM37.58,49.83l.13-.35.13,0Zm-1,1.61a3,3,0,0,1-.38.62l.13-.69.35-.18ZM32,56h0a3.74,3.74,0,0,1-2.36-.8,3.81,3.81,0,0,1-1.34-2.1A6,6,0,0,0,32,54.24H32a6,6,0,0,0,3.69-1.15,3.8,3.8,0,0,1-1.37,2.09A3.73,3.73,0,0,1,32,56Zm-4.61-4.58-.09-.26a2.64,2.64,0,0,0,.37.2l.12.72a3.92,3.92,0,0,1-.42-.64Zm-1.25-2,.16,0,.15.43ZM11.65,43.6a3.53,3.53,0,0,1,.16-3.78,6.91,6.91,0,0,0,3.12,5.61,3.5,3.5,0,0,1-3.28-1.83ZM14.1,28l.25.29,0,.15Zm-1.19-2.23.51.43c0,.14,0,.26,0,.4l-.14-.17A4.22,4.22,0,0,1,12.91,25.74Zm-1.19-5.59A3.81,3.81,0,0,1,15,18.23a3.77,3.77,0,0,1,1.06.15A6.52,6.52,0,0,0,13.15,21a6.45,6.45,0,0,0-.87,3.79,3.72,3.72,0,0,1-.56-4.64Zm5.88-1.7h.34l.21,0a3.24,3.24,0,0,0-.35.21l-.64-.24A3.2,3.2,0,0,1,17.6,18.45Zm2.61-.06-.12.11-.43-.09ZM32.3,8.62a3.49,3.49,0,0,1,1.89.54,3.45,3.45,0,0,1,1.3,1.48,6.93,6.93,0,0,0-3.21-.82,7,7,0,0,0-3.22.77,3.51,3.51,0,0,1,3.24-2Zm12.62,10-.47.09-.14-.12Zm1.71.08a3.64,3.64,0,0,1,.81,0l-.67.24-.36-.23Zm6.23,1.8a3.75,3.75,0,0,1-.67,4.67,6.57,6.57,0,0,0-.8-3.83,6.51,6.51,0,0,0-2.84-2.68,3.68,3.68,0,0,1,2.47.17,3.76,3.76,0,0,1,1.83,1.67Zm-1.68,6.21L51,27v-.38l.53-.44a2.92,2.92,0,0,1-.37.61Zm-1.15,2a.69.69,0,0,0,0-.13l.23-.26ZM40,47l.26-.38.59,0-.21.17Zm-3.24,2.2.2-1.08.89-.07L37.5,49c-.26.07-.5.15-.77.21ZM26.21,48l.92.08.18,1.1a7.74,7.74,0,0,1-.77-.24Zm-3.05-1.54.63,0,.25.41-.65-.25Zm-2.39-.85.77-.11.13.19-.88,0ZM15.31,31.41l.2.4-.27.51,0-.26Zm-.24-3.84.8.69c-.13.27-.26.53-.38.79l-.62-.73c.06-.24.12-.49.2-.74Zm6.28-8.46-.52.73-1-.37a7.15,7.15,0,0,1,.58-.54Zm2.76-1.83-.31.46,0,0-.46,0,.52-.43Zm11.71-5.44.12.7a11.32,11.32,0,0,0-7.36,0l.13-.69a5.29,5.29,0,0,1,3.52-1.19h.06A5.34,5.34,0,0,1,35.82,11.84ZM41.16,18l-.48,0-.34-.53.29.11Zm3.53,1.75-1,.38c-.17-.26-.34-.52-.51-.76l1-.17c.19.17.38.36.57.56Zm4.54,2.8a9.35,9.35,0,0,1,1.28,4.05l-.85.7a21.77,21.77,0,0,0-4.21-7.51l1.06-.37a9.55,9.55,0,0,1,2.73,3.13Zm-.41,6.91-.37-.79.84-.69c.06.26.12.51.16.75ZM49,32.72l-.26-.52.2-.38.11.64Zm.48,5,.74.62a10.39,10.39,0,0,1-3.85,6.57l-.94-.35a21.79,21.79,0,0,0,4-6.83Zm-4.68,7.54.36.13-.41-.08Zm-1.58-.6.93.36-.16.15L43,45Zm-.74,1,.7.14-.82,0,.12-.16Zm-5.24.86s0-.06,0-.09l1.14.07-.34.92-1,.08Zm-11.58-.15,1.17,0,0,.1.16,1-1-.11Zm-4.33-2.14,1-.35.18-.05.31.62-1.18.2Zm-2.08.85-.5.08.44-.15Zm.58-.3,1-.35.22.34L20,45Zm-5.18-7.43a21.92,21.92,0,0,0,3.9,7l-1,.34A10.34,10.34,0,0,1,13.87,38Zm-.26-.91-.19.16.17-.21S14.37,36.43,14.38,36.44Zm1.32-1.09-.78.64a1.06,1.06,0,0,1,0-.19l.67-.78c0,.11.09.22.14.33Zm-.49-1.12-.42.47.34-.64s0,.11.07.17Zm.72-1.71c.11.17.22.31.32.5l-.05,0-.62.72c-.05-.12-.1-.23-.14-.34Zm.39-1.9-.52.76-.35-.71.31-.72Zm.84-1.24c-.21.31-.42.62-.62.93l-.61-.72.43-.9ZM23,19.44l-.54,1-1-.38c.2-.28.39-.56.59-.82Zm2.61-3.08L26,15.7l-.23.62Zm1.69-1.81.12-.31-.06.31Zm-.06.66-.19,1-.37,0,.36-1Zm1-.88.19-1a10.34,10.34,0,0,1,7.64,0l.17,1A22,22,0,0,0,28.24,14.33Zm8.93.27-.08-.44.17.47Zm.28,1.71-.18-1,.22.07.35,1-.4,0Zm1.25.14-.25-.72.48.74ZM42,20.67h0c-.18-.35-.36-.7-.52-1.05l1-.17c.2.28.39.56.59.86Zm5.71,10-.6-.94.81-.67.41.91Zm1.32,3.76.34.68-.42-.5Zm-.46-.28L48,33.39l.34-.49.46.91-.15.34ZM42,43.29c1.41-2.62,3.09-5.46,4.7-8l1,.84a69.88,69.88,0,0,1-4.46,7.57Zm-.41.77.06,0,1.06.4-.28.39-1.15-.22.31-.6Zm-2,.21c.1-.26.2-.52.31-.78.43.13.85.27,1.27.42l-.34.63c-.41-.1-.82-.19-1.24-.27Zm-12.81.29a41.25,41.25,0,0,1,10.59.13c-.09.34-.17.69-.24,1-2-.11-4.18-.16-6.32-.16-1.3,0-2.58,0-3.81.06-.06-.37-.13-.72-.22-1.07Zm-8.9-9.88,1-.93a42.17,42.17,0,0,1,5,8.76q-.69.18-1.38.42c-1.39-2.73-3.07-5.68-4.66-8.25ZM17,34.24l-.13.11-.79.66-.19-.44.77-.88Zm.83-1.82.51.62c-.32.31-.65.6-1,.89L17,33.35c.28-.3.57-.62.85-.94ZM16.8,31.17c.19.21.37.42.56.62q-.39.45-.78.87l-.41-.6C16.38,31.77,16.59,31.48,16.8,31.17Zm.89-1.33c.25.22.5.45.74.69-.27.34-.54.67-.82,1l-.6-.68C17.24,30.52,17.46,30.19,17.69,29.84ZM23,20.94c.33.12.66.23,1,.33a41.74,41.74,0,0,1-5.35,9l-.76-.7c1.76-2.7,3.6-5.81,5.11-8.66Zm.71-1.36.89.2c-.15.41-.31.81-.49,1.22l-1-.31Zm1.41-1.28c-.12.38-.26.75-.39,1.13l-.85-.19c.17-.34.34-.67.5-1Zm.18-.57v0a.45.45,0,0,1,0,.11l-.63-.05.58-.88.39,0Zm1.47,0a1.84,1.84,0,0,1,0,.25l-.65,0,.4-1.12.48,0Zm11,.37a2.56,2.56,0,0,0-.05-.27l-.16-.95.5,0L38.42,18ZM39,19.73l-.84.13c-.11-.45-.21-.89-.3-1.34l.74,0c.14.41.27.82.41,1.24Zm1.38,1.47c-.17-.42-.33-.83-.48-1.24l.94-.19c.18.37.36.75.56,1.13-.34.1-.67.21-1,.3Zm6.3,10.68c-.27-.31-.54-.66-.8-1l.76-.68.66,1-.6.67Zm.87,2.18.74.89c-.07.13-.13.27-.2.41l-.86-.73,0,0,.37-.53Zm-1.67-.67.52-.62.84.93-.39.59ZM38.4,42.2A28.73,28.73,0,0,1,44,32.74c.33.37.68.73,1,1.08a42,42,0,0,0-5.19,8.76c-.48-.14-1-.27-1.44-.38Zm-.28.82c.47.11.94.23,1.39.36-.11.27-.22.55-.31.82q-.66-.14-1.35-.24c.08-.32.17-.63.28-.94Zm-11.83-.21A28.44,28.44,0,0,1,37.84,43c-.1.31-.2.64-.29,1a42.56,42.56,0,0,0-11-.13c-.08-.33-.18-.65-.27-1Zm-.29.06c.1.31.19.64.27,1q-.7.09-1.38.21c-.1-.28-.21-.56-.32-.84.48-.12.95-.24,1.43-.34ZM20.23,32.42a28.69,28.69,0,0,1,5.5,9.63c-.5.1-1,.22-1.48.35a42.73,42.73,0,0,0-5.08-8.91c.37-.35.72-.71,1.06-1.08Zm-.58-.65c-.33.35-.66.69-1,1l-.53-.66c.29-.34.59-.69.88-1.05C19.22,31.3,19.43,31.53,19.65,31.77Zm6-10a28.26,28.26,0,0,1-5.81,9.8c-.22-.24-.44-.47-.67-.7a43,43,0,0,0,5.53-9.35c.3.09.62.17.94.25Zm.52-1.67c-.13.47-.27.94-.42,1.39-.31-.07-.63-.15-.94-.24q.27-.64.51-1.29Zm1-.23c.12-.46.22-.94.32-1.4,3,.15,6.45.19,9.5.1.09.47.19.93.31,1.41A41.37,41.37,0,0,1,27.15,19.85ZM37.76,21.8a28.85,28.85,0,0,1-11.15-.14c.15-.48.3-1,.43-1.46a42.34,42.34,0,0,0,10.31.12c.12.5.26,1,.41,1.48Zm.86-.17c-.15-.47-.29-.94-.41-1.42l.88-.13c.15.44.31.88.5,1.32-.33.09-.65.17-1,.24Zm5.21,10.9a28.88,28.88,0,0,0-5.7,9.6A29.2,29.2,0,0,0,26,42a29,29,0,0,0-5.61-9.79A29.2,29.2,0,0,0,26.5,21.94a28.91,28.91,0,0,0,11.35.15,29.25,29.25,0,0,0,6,10.44Zm.58-.64a28.34,28.34,0,0,1-5.7-10l1-.23a42.29,42.29,0,0,0,5.4,9.5c-.24.22-.46.46-.69.69Zm.2.22c.22-.24.44-.47.67-.69.28.36.56.71.85,1.06l-.54.65c-.34-.34-.67-.68-1-1Zm-18-13.71c-.09.44-.2.88-.31,1.32l-.81-.14c.14-.41.28-.81.41-1.22Zm15,24.73c-.45-.16-.89-.31-1.34-.45a42,42,0,0,1,5.1-8.61c.33.33.67.64,1,.94-1.64,2.55-3.36,5.46-4.79,8.12Zm6.52-10.7-.42.6c-.26-.28-.51-.57-.77-.87l.59-.64c.19.32.39.62.59.91Zm-1.62-2.49c-.27.23-.53.46-.78.7a41,41,0,0,1-5.22-9.17l1-.31C43,24.05,44.74,27.2,46.46,29.94ZM40.12,18.39c.15.34.31.68.49,1l-.88.17c-.13-.38-.26-.77-.37-1.15ZM27.89,16.16,28.11,15a21.3,21.3,0,0,1,8.23.06l.2,1.2a71.17,71.17,0,0,0-8.64-.07Zm8.74.62.2,1.17a.8.8,0,0,0,0,.15c-3,.08-6.34,0-9.32-.1l0-.14.22-1.16a70.62,70.62,0,0,1,8.85.08ZM20.3,43.68l-1.14.4a21.31,21.31,0,0,1-4-7.17l.91-.75A70.34,70.34,0,0,0,20.3,43.68Zm-3.8-7.86,1-.8,0,0c1.56,2.53,3.21,5.42,4.58,8.08H22l-1.18.43A69.14,69.14,0,0,1,16.5,35.82Zm6.42,7.87c.43-.15.86-.28,1.3-.4.11.27.2.54.31.8l-1.27.26Zm1,2.08c-.1-.23-.21-.46-.33-.7l1.18-.23c.1.29.19.58.28.86l-1.13.08Zm1.51-.09c-.09-.31-.19-.6-.29-.9.44-.08.88-.14,1.32-.19.08.34.15.69.22,1Zm12,.06c.08-.35.16-.69.25-1l1.28.22c-.11.29-.21.59-.32.88l-1.21-.07Zm1.61.1c.09-.28.18-.56.28-.84l1.15.26c-.12.22-.22.45-.33.67Zm4.71-1.91a71.53,71.53,0,0,0,4.36-7.41l.89.76a21.7,21.7,0,0,1-4.15,7.06Zm6.05-7.17L50,37l-.21-.18a.2.2,0,0,1,0-.07Zm-.53-.39-.76-.65c.05-.1.1-.22.15-.31l.66.78c0,.05,0,.12-.06.18ZM48.82,31v.08l-.36.7L48,31l.58-.67c.1.22.19.44.27.65Zm-5-10.64L44.92,20a21.12,21.12,0,0,1,4.31,7.69l-.9.72a71.63,71.63,0,0,0-4.51-8Zm4,8.42-.85.71c-1.66-2.66-3.4-5.75-4.84-8.55l1-.37a69.61,69.61,0,0,1,4.62,8.21ZM41.75,18.46c.16.21.31.43.49.66l-.9.16c-.14-.31-.28-.59-.41-.87ZM39.88,18l-.64,0c0-.05,0-.09,0-.14L38.9,17l.41.06Zm-16.32.29q-.19.41-.42.84l-.87-.17c.17-.22.33-.43.49-.62Zm-2.29,2.07,1,.38c-1.47,2.76-3.27,5.8-5,8.41l-.83-.7a68.45,68.45,0,0,1,4.78-8.09Zm-.6-.22A72.83,72.83,0,0,0,16,28l-.85-.72A21.35,21.35,0,0,1,19.6,19.7Zm1.7,25.59-.25-.33,1-.17h0c.09.2.18.39.28.58Zm2.39,1.47-.44-.71.95-.05.31.87-.8-.11Zm11.89,1-.22,1.14a21,21,0,0,1-8.83-.07l-.19-1.15c1.65.13,3.47.2,5.27.2,1.36,0,2.71,0,4-.12Zm-9.35-.7-.17-1.06v-.07c3.15-.1,6.7-.06,9.84.1v.06l-.19,1.05a69.74,69.74,0,0,1-9.48-.08Zm11.89-.15-.72.08.31-.85.94.07-.44.67Zm1.43-1.38.27-.55,1,.19-.24.31Zm9-16.37,0,.14-.34.64L49,29.81l.55-.62C49.55,29.31,49.57,29.43,49.57,29.55Zm.33-1.35c0-.2-.09-.4-.15-.62l.77-.63a3.9,3.9,0,0,1,0,.59ZM51,21.53a5.51,5.51,0,0,1,.66,4.08l-.75.62a11.06,11.06,0,0,0-3.91-7l.93-.31A5.51,5.51,0,0,1,51,21.53Zm-5.37-2.62a4.17,4.17,0,0,1,.54.31l-1,.34-.47-.48Zm-2.31-.34q.2.13.39.3L42.9,19l-.36-.49.82.05Zm-22.21-.21.8,0-.36.47-.82-.16.38-.28Zm-1.41.46c-.16.14-.31.31-.47.46l-.93-.35a5.52,5.52,0,0,1,.54-.28Zm-4.5,3.39A9.42,9.42,0,0,1,18,19.12l1,.38a21.49,21.49,0,0,0-4.36,7.4l-.83-.71a9.48,9.48,0,0,1,1.36-4Zm-1.76-1a5.52,5.52,0,0,1,3.14-2.59l.89.33a11.05,11.05,0,0,0-4.05,6.91l-.72-.62A5.49,5.49,0,0,1,13.48,21.18Zm.41,6a5.83,5.83,0,0,1,0-.59l.76.64a6.48,6.48,0,0,0-.17.63Zm.85,2.08a3,3,0,0,1,0-.42l.53.62c-.08.18-.16.35-.23.52l-.34-.67ZM13.39,42.67a5.38,5.38,0,0,1-.69-3.74l.53-.43a10.51,10.51,0,0,0,1.28,3.55,10.77,10.77,0,0,0,2.3,2.86l-.66.23A5.41,5.41,0,0,1,13.39,42.67Zm12.22,5.84-.42-.67.6.08.28.82-.4-.18Zm1.14,1,.64.17.17,1a4.21,4.21,0,0,1-.52-.34ZM32,51.8a9.57,9.57,0,0,1-4.08-.88l-.19-1.12a20.57,20.57,0,0,0,4.49.47,19.84,19.84,0,0,0,4.14-.41L36.11,51A9.54,9.54,0,0,1,32,51.8Zm3.87.69a6,6,0,0,1-7.7,0l-.16-1a10.1,10.1,0,0,0,4,.78h.11A10.21,10.21,0,0,0,36,51.52Zm1.11-2a5.19,5.19,0,0,1-.5.31l.18-1,.63-.16Zm1.34-1.8-.34.14.29-.8.58-.06-.42.62ZM50.59,43a5.38,5.38,0,0,1-2.83,2.44l-.62-.23a11.43,11.43,0,0,0,3.71-6.32l.5.43A5.35,5.35,0,0,1,50.59,43Zm1.5-4.19L52,38.76a4.16,4.16,0,0,0-.58-1.2l-.54-.65a5.41,5.41,0,0,0-.12-.58l-.74-1.49-.42-2.63.47-2.62.67-1.27v0a4.38,4.38,0,0,0,.15-.72l.51-.59a3.92,3.92,0,0,0,.63-1.3l0-.05a4.14,4.14,0,0,0-1.17-7.07,4.14,4.14,0,0,0-2.84,0h0a4.09,4.09,0,0,0-1.52-.16l-.71.12a4.89,4.89,0,0,0-.76-.27l-1.42-.09,0,0-2.49-1-2.07-1.76L38.18,14l0-.05a4.47,4.47,0,0,0-.45-.42l-.26-.79v0a4.15,4.15,0,0,0-.76-1.13v-.11a4.43,4.43,0,0,0-7.18-2.68,4.38,4.38,0,0,0-1.54,2.6l0,.14a4,4,0,0,0-.76,1.09l-.31.85a5.08,5.08,0,0,0-.43.38l-1,1.49L23.35,17l-2.4.86-.06,0,0,0L19.5,18h-.05a5.08,5.08,0,0,0-.75.25L18,18.09h0a4.15,4.15,0,0,0-1.49.13,4.15,4.15,0,0,0-4.15,7l0,0a4.2,4.2,0,0,0,.6,1.35l.47.56a4,4,0,0,0,.14.75l.62,1.26v0l.42,2.59-.47,2.59-.79,1.49,0,.06a4.9,4.9,0,0,0-.13.55l-.56.65,0,0a3.85,3.85,0,0,0-.59,1.16l-.1.08a4.42,4.42,0,0,0-1.55,2.61,4.47,4.47,0,0,0,.5,3,4.43,4.43,0,0,0,2.31,2,4.47,4.47,0,0,0,3,0l.06,0a4,4,0,0,0,1.38.12l.83-.14a4.48,4.48,0,0,0,.62.2l1.67.11,2.53,1,2,1.72.06,0,.76,1.21,0,0a4.07,4.07,0,0,0,.58.52l.26.73a3.71,3.71,0,0,0,.86,1.22v.05a4,4,0,0,0,4,3.46h0a4,4,0,0,0,4.07-3.38v-.09a4.13,4.13,0,0,0,.85-1.18l.27-.74a5.07,5.07,0,0,0,.56-.48l.84-1.26,2.1-1.71,2.51-.9,1.56-.06h.06a4.31,4.31,0,0,0,.61-.19l.77.15h0l.43,0a4.24,4.24,0,0,0,.94-.11l0,0a4.54,4.54,0,0,0,1.63.31A4.42,4.42,0,0,0,53,44.44a4.31,4.31,0,0,0-.94-5.62Z"/></svg>